<svg width="64" height="58" viewBox="0 0 64 58" fill="none" xmlns="http://www.w3.org/2000/svg">
<path fill-rule="evenodd" clip-rule="evenodd" d="M47.3143 0.747775L15.3558 1.11072L0.079536 27.57L14.7178 57.1753L47.5657 57.3216L63.8558 29.1062L47.3143 0.747775ZM54.4876 43.3323L62.4139 29.6036L49.7448 29.5472L41.7203 43.446L54.4876 43.3323ZM53.9073 44.3376L46.9898 56.319L34.3207 56.2626L41.1399 44.4513L53.9073 44.3376ZM39.9793 44.4616L33.1689 56.2574L15.8928 56.1805L22.5692 44.6166L39.9793 44.4616ZM21.7059 44.112L15.0631 55.6176L7.33911 39.996L13.5791 29.1881L21.7059 44.112ZM14.165 28.1732L22.2918 43.0971L30.4536 28.9606L22.2359 14.3463L22.1471 14.3478L14.165 28.1732ZM13.0186 28.1589L6.80642 38.9187L1.21315 27.6065L7.13366 17.3519L13.0186 28.1589ZM7.71963 16.3369L13.6046 27.1439L21.5642 13.3575L21.6787 13.3555L15.6406 2.61739L7.71963 16.3369ZM23.1496 43.6114L40.5596 43.4564L48.5931 29.5421L31.317 29.4651L23.1496 43.6114ZM48.4401 28.5414L31.3222 28.4652L23.3724 14.3272L39.9859 14.0477L48.4401 28.5414ZM39.4082 13.0573L22.8153 13.3364L16.4957 2.09784L32.9068 1.91146L39.4082 13.0573ZM34.0569 1.8984L40.5547 13.038L53.2015 12.8253L46.7437 1.75432L34.0569 1.8984ZM53.7792 13.8157L41.1324 14.0284L49.6008 28.5465L62.405 28.6036L53.7792 13.8157Z" fill="url(#paint0_linear_500_5982)"/>
<defs>
<linearGradient id="paint0_linear_500_5982" x1="14.5" y1="1.00006" x2="47" y2="59.0001" gradientUnits="userSpaceOnUse">
<stop stop-color="#D713B3"/>
<stop offset="1" stop-color="#8D2A2A"/>
</linearGradient>
</defs>
</svg>
